<svg width="256" height="256" viewBox="0 0 256 256" fill="none" xmlns="http://www.w3.org/2000/svg">
<g filter="url(#filter0_d_18_389)">
<path d="M153.961 127.36C153.961 142.052 142.051 153.961 127.36 153.961C112.668 153.961 100.759 142.052 100.759 127.36C100.759 112.669 112.668 100.759 127.36 100.759C142.051 100.759 153.961 112.669 153.961 127.36Z" fill="#0000FF"/>
<path d="M120.837 29.518C123.617 24.2941 131.103 24.2941 133.883 29.518L158.037 74.9063C159.861 78.3337 158.71 82.5739 155.274 84.3821C148.312 88.0465 136.606 93.3696 127.36 93.3696C118.114 93.3696 106.408 88.0465 99.4457 84.3821C96.01 82.5739 94.8588 78.3337 96.6828 74.9063L120.837 29.518Z" fill="#0000FF"/>
<path d="M29.5179 133.809C24.2941 131.029 24.2941 123.543 29.5179 120.763L74.9062 96.6085C78.3336 94.7846 82.5738 95.9357 84.3821 99.3715C88.0464 106.334 93.3695 118.039 93.3695 127.286C93.3695 136.532 88.0464 148.238 84.3821 155.2C82.5738 158.636 78.3336 159.787 74.9062 157.963L29.5179 133.809Z" fill="#0000FF"/>
<path d="M133.809 225.202C131.029 230.426 123.542 230.426 120.763 225.202L96.6084 179.814C94.7844 176.386 95.9356 172.146 99.3713 170.338C106.334 166.674 118.039 161.351 127.286 161.351C136.532 161.351 148.237 166.674 155.2 170.338C158.636 172.146 159.787 176.386 157.963 179.814L133.809 225.202Z" fill="#0000FF"/>
<path d="M225.202 133.809C230.426 131.029 230.426 123.543 225.202 120.763L179.814 96.6085C176.386 94.7846 172.146 95.9357 170.338 99.3715C166.674 106.334 161.351 118.039 161.351 127.286C161.351 136.532 166.674 148.238 170.338 155.2C172.146 158.636 176.386 159.787 179.814 157.963L225.202 133.809Z" fill="#0000FF"/>
<path d="M153.961 127.36C153.961 142.052 142.051 153.961 127.36 153.961C112.668 153.961 100.759 142.052 100.759 127.36C100.759 112.669 112.668 100.759 127.36 100.759C142.051 100.759 153.961 112.669 153.961 127.36Z" stroke="#0000FF" stroke-width="3.84" stroke-linecap="round" stroke-linejoin="round"/>
<path d="M120.837 29.518C123.617 24.2941 131.103 24.2941 133.883 29.518L158.037 74.9063C159.861 78.3337 158.71 82.5739 155.274 84.3821C148.312 88.0465 136.606 93.3696 127.36 93.3696C118.114 93.3696 106.408 88.0465 99.4457 84.3821C96.01 82.5739 94.8588 78.3337 96.6828 74.9063L120.837 29.518Z" stroke="#0000FF" stroke-width="3.84" stroke-linecap="round" stroke-linejoin="round"/>
<path d="M29.5179 133.809C24.2941 131.029 24.2941 123.543 29.5179 120.763L74.9062 96.6085C78.3336 94.7846 82.5738 95.9357 84.3821 99.3715C88.0464 106.334 93.3695 118.039 93.3695 127.286C93.3695 136.532 88.0464 148.238 84.3821 155.2C82.5738 158.636 78.3336 159.787 74.9062 157.963L29.5179 133.809Z" stroke="#0000FF" stroke-width="3.84" stroke-linecap="round" stroke-linejoin="round"/>
<path d="M133.809 225.202C131.029 230.426 123.542 230.426 120.763 225.202L96.6084 179.814C94.7844 176.386 95.9356 172.146 99.3713 170.338C106.334 166.674 118.039 161.351 127.286 161.351C136.532 161.351 148.237 166.674 155.2 170.338C158.636 172.146 159.787 176.386 157.963 179.814L133.809 225.202Z" stroke="#0000FF" stroke-width="3.84" stroke-linecap="round" stroke-linejoin="round"/>
<path d="M225.202 133.809C230.426 131.029 230.426 123.543 225.202 120.763L179.814 96.6085C176.386 94.7846 172.146 95.9357 170.338 99.3715C166.674 106.334 161.351 118.039 161.351 127.286C161.351 136.532 166.674 148.238 170.338 155.2C172.146 158.636 176.386 159.787 179.814 157.963L225.202 133.809Z" stroke="#0000FF" stroke-width="3.84" stroke-linecap="round" stroke-linejoin="round"/>
</g>
<path d="M127.727 32L152.714 79.2512C152.714 79.2512 138.115 88.4275 127.727 88.4275C117.34 88.4275 102.741 79.2512 102.741 79.2512L127.727 32Z" fill="#00FF00"/>
<path d="M127.727 224L102.741 176.749C102.741 176.749 117.34 167.573 127.727 167.573C138.115 167.573 152.714 176.749 152.714 176.749L127.727 224Z" fill="#00FF00"/>
<path d="M30.72 128L78.1053 103.084C78.1053 103.084 87.3077 117.642 87.3077 128C87.3077 138.358 78.1053 152.916 78.1053 152.916L30.72 128Z" fill="#00FF00"/>
<path d="M224 128L176.615 103.084C176.615 103.084 167.412 117.642 167.412 128C167.412 138.358 176.615 152.916 176.615 152.916L224 128Z" fill="#00FF00"/>
<circle cx="128" cy="128" r="20.48" fill="#00FF00"/>
<defs>
<filter id="filter0_d_18_389" x="18.5601" y="23.6802" width="217.6" height="220.16" filterUnits="userSpaceOnUse" color-interpolation-filters="sRGB">
<feFlood flood-opacity="0" result="BackgroundImageFix"/>
<feColorMatrix in="SourceAlpha" type="matrix" values="0 0 0 0 0 0 0 0 0 0 0 0 0 0 0 0 0 0 127 0" result="hardAlpha"/>
<feOffset dy="7.68"/>
<feGaussianBlur stdDeviation="2.56"/>
<feColorMatrix type="matrix" values="0 0 0 0 0 0 0 0 0 0 0 0 0 0 0 0 0 0 0.25 0"/>
<feBlend mode="normal" in2="BackgroundImageFix" result="effect1_dropShadow_18_389"/>
<feBlend mode="normal" in="SourceGraphic" in2="effect1_dropShadow_18_389" result="shape"/>
</filter>
</defs>
</svg>
