<svg width="256" height="256" viewBox="0 0 256 256" fill="none" xmlns="http://www.w3.org/2000/svg">
<path d="M153.869 96.2407C155.112 94.1868 157.754 93.4777 159.859 94.6333L214.636 124.713C216.069 125.5 216.96 127.005 216.96 128.64C216.96 130.275 216.069 131.78 214.636 132.567L159.859 162.647C157.754 163.803 155.112 163.093 153.869 161.04L157.702 158.72L153.869 161.039L153.868 161.038C153.868 161.037 153.867 161.036 153.866 161.035L153.843 160.996C153.828 160.971 153.807 160.937 153.781 160.894C153.73 160.807 153.656 160.682 153.563 160.522C153.376 160.202 153.111 159.741 152.785 159.158C152.135 157.993 151.24 156.336 150.25 154.345C148.667 151.16 146.8 147.034 145.307 142.647C144.987 142.645 144.644 142.642 144.28 142.641C141.55 142.632 137.647 142.63 132.953 142.633C123.568 142.64 111.05 142.666 98.5011 142.693C85.955 142.719 73.3786 142.746 63.8849 142.752C59.139 142.756 55.1574 142.755 52.3331 142.746C50.9227 142.741 49.7906 142.735 48.9933 142.726C48.5975 142.722 48.2671 142.717 48.0206 142.71C47.9007 142.707 47.7748 142.703 47.6613 142.698C47.6071 142.695 47.5246 142.691 47.4327 142.683C47.4031 142.681 47.3615 142.676 47.3116 142.67C47.2984 142.669 47.285 142.669 47.2716 142.667C47.2593 142.666 47.247 142.664 47.2345 142.663C47.2313 142.662 47.228 142.662 47.2247 142.662C47.2199 142.661 47.2139 142.66 47.2072 142.659C47.0403 142.639 46.8593 142.612 46.6671 142.569C46.2295 142.471 45.7438 142.307 45.2394 142.045C44.2016 141.507 43.2662 140.65 42.5138 139.478C41.0897 137.26 40.3195 133.926 40.3195 128.968C40.3195 124.01 41.0897 120.677 42.5138 118.458C43.2662 117.286 44.2016 116.43 45.2394 115.891C45.7438 115.629 46.2295 115.465 46.6671 115.368C46.8844 115.319 47.0871 115.288 47.2716 115.269C47.2953 115.267 47.3188 115.265 47.3419 115.263C47.3887 115.258 47.4273 115.255 47.4542 115.252C47.5431 115.245 47.6226 115.241 47.674 115.239C47.7824 115.234 47.9038 115.231 48.0206 115.228C48.2612 115.223 48.5866 115.218 48.9786 115.214C49.7678 115.207 50.892 115.201 52.296 115.197C55.1073 115.189 59.0766 115.187 63.8116 115.19C73.2837 115.196 85.8414 115.218 98.3722 115.242C110.905 115.265 123.412 115.288 132.788 115.294C137.477 115.297 141.378 115.296 144.107 115.289C144.454 115.288 144.782 115.284 145.089 115.283C146.579 110.766 148.493 106.491 150.124 103.189C151.143 101.127 152.069 99.4068 152.743 98.1968C153.081 97.5912 153.357 97.1115 153.551 96.7788C153.648 96.6124 153.725 96.4827 153.778 96.3921C153.805 96.3468 153.827 96.3111 153.842 96.2856C153.85 96.273 153.856 96.263 153.86 96.2554C153.863 96.2516 153.865 96.2481 153.866 96.2456C153.867 96.2445 153.868 96.2435 153.868 96.2427L153.869 96.2417C153.879 96.2468 154.046 96.3475 157.102 98.1968L153.869 96.2407Z" stroke="#0000FF" stroke-width="8.96" stroke-linecap="round" stroke-linejoin="round"/>
<path d="M212.48 128.64L157.702 158.72C157.702 158.72 151.56 148.573 148.61 138.214C148.549 138.001 48.6359 138.424 47.7677 138.214C47.7677 138.214 44.7999 138.214 44.7999 128.968C44.7999 119.723 47.7677 119.723 47.7677 119.723C48.5279 119.534 148.377 119.909 148.428 119.723C151.298 109.14 157.702 98.5601 157.702 98.5601L212.48 128.64Z" fill="#00FF00"/>
</svg>
