<svg width="256" height="256" viewBox="0 0 256 256" fill="none" xmlns="http://www.w3.org/2000/svg">
<g filter="url(#filter0_d_21_147)">
<path d="M110.462 37.12C75.0067 37.12 46.08 66.1097 46.08 101.643C46.08 137.176 75.0067 166.166 110.462 166.166C121.304 166.166 131.099 162.841 139.971 158.1L142.385 160.52C141.558 161.322 140.9 162.283 140.451 163.345C140.001 164.408 139.77 165.549 139.77 166.703C139.77 167.857 140.001 168.999 140.451 170.061C140.9 171.123 141.558 172.084 142.385 172.887L176.723 207.299C177.523 208.128 178.482 208.787 179.542 209.237C180.602 209.688 181.741 209.92 182.893 209.92C184.044 209.92 185.184 209.688 186.243 209.237C187.303 208.787 188.262 208.128 189.063 207.299L207.304 189.017C208.132 188.215 208.79 187.254 209.239 186.192C209.688 185.13 209.92 183.988 209.92 182.834C209.92 181.68 209.688 180.538 209.239 179.476C208.79 178.414 208.132 177.453 207.304 176.65L172.967 142.238C171.36 140.646 169.191 139.753 166.931 139.753C164.671 139.753 162.503 140.646 160.895 142.238L159.822 141.163C168.653 130.175 174.845 116.88 174.845 101.643C174.845 66.1097 145.918 37.12 110.462 37.12Z" fill="#0000FF"/>
</g>
<path d="M110.628 46.08C79.9278 46.08 55.0399 71.0335 55.0399 101.815C55.0399 132.597 79.9278 157.551 110.628 157.551C122.276 157.551 132.965 153.775 141.897 147.636L154.725 160.498L148.578 166.661L182.787 200.96L200.96 182.739L166.752 148.44L160.605 154.335L148.578 142.277C159.361 132.111 166.217 117.826 166.217 101.815C166.217 71.0335 141.329 46.08 110.628 46.08Z" fill="#00FF00"/>
<path d="M144.64 97.28H76.7999V107.52H144.64V97.28Z" fill="#0000FF"/>
<defs>
<filter id="filter0_d_21_147" x="40.96" y="37.12" width="174.08" height="185.6" filterUnits="userSpaceOnUse" color-interpolation-filters="sRGB">
<feFlood flood-opacity="0" result="BackgroundImageFix"/>
<feColorMatrix in="SourceAlpha" type="matrix" values="0 0 0 0 0 0 0 0 0 0 0 0 0 0 0 0 0 0 127 0" result="hardAlpha"/>
<feOffset dy="7.68"/>
<feGaussianBlur stdDeviation="2.56"/>
<feColorMatrix type="matrix" values="0 0 0 0 0 0 0 0 0 0 0 0 0 0 0 0 0 0 0.25 0"/>
<feBlend mode="normal" in2="BackgroundImageFix" result="effect1_dropShadow_21_147"/>
<feBlend mode="normal" in="SourceGraphic" in2="effect1_dropShadow_21_147" result="shape"/>
</filter>
</defs>
</svg>
